<svg width="46" height="46" viewBox="0 0 46 46" fill="none" xmlns="http://www.w3.org/2000/svg">
<path d="M14.8207 29.7386H14.8228C14.8246 29.7386 14.8263 29.7383 14.8281 29.7383H39.2617C39.8633 29.7383 40.3921 29.3393 40.5574 28.7609L45.9481 9.89371C46.0642 9.48695 45.9828 9.04967 45.7284 8.71205C45.4736 8.37444 45.0752 8.1758 44.6523 8.1758H11.7127L10.7493 3.84048C10.6121 3.22386 10.0653 2.78517 9.43359 2.78517H1.34766C0.603287 2.78517 0 3.38846 0 4.13283C0 4.8772 0.603287 5.48048 1.34766 5.48048H8.35266C8.52322 6.24872 12.9628 26.227 13.2183 27.3764C11.786 27.999 10.7812 29.427 10.7812 31.086C10.7812 33.3152 12.595 35.1289 14.8242 35.1289H39.2617C40.0061 35.1289 40.6094 34.5256 40.6094 33.7813C40.6094 33.0369 40.0061 32.4336 39.2617 32.4336H14.8242C14.0813 32.4336 13.4766 31.8289 13.4766 31.086C13.4766 30.344 14.0791 29.7404 14.8207 29.7386ZM42.8656 10.8711L38.245 27.043H15.9052L12.3114 10.8711H42.8656Z" fill="#D2D6D9"/>
<path d="M13.4766 39.1719C13.4766 41.4011 15.2903 43.2148 17.5195 43.2148C19.7488 43.2148 21.5625 41.4011 21.5625 39.1719C21.5625 36.9426 19.7488 35.1289 17.5195 35.1289C15.2903 35.1289 13.4766 36.9426 13.4766 39.1719ZM17.5195 37.8242C18.2625 37.8242 18.8672 38.4289 18.8672 39.1719C18.8672 39.9148 18.2625 40.5195 17.5195 40.5195C16.7766 40.5195 16.1719 39.9148 16.1719 39.1719C16.1719 38.4289 16.7766 37.8242 17.5195 37.8242Z" fill="#D2D6D9"/>
<path d="M32.5234 39.1719C32.5234 41.4011 34.3372 43.2148 36.5664 43.2148C38.7957 43.2148 40.6094 41.4011 40.6094 39.1719C40.6094 36.9426 38.7957 35.1289 36.5664 35.1289C34.3372 35.1289 32.5234 36.9426 32.5234 39.1719ZM36.5664 37.8242C37.3094 37.8242 37.9141 38.4289 37.9141 39.1719C37.9141 39.9148 37.3094 40.5195 36.5664 40.5195C35.8234 40.5195 35.2188 39.9148 35.2188 39.1719C35.2188 38.4289 35.8234 37.8242 36.5664 37.8242Z" fill="#D2D6D9"/>
</svg>
