<svg width="35" height="35" viewBox="0 0 35 35" fill="none" xmlns="http://www.w3.org/2000/svg">
<path d="M13.9795 31.4267V34.9802L13.1223 34.2861C12.9899 34.1788 9.83868 31.6141 6.64314 27.9364C2.23503 22.863 0 18.3089 0 14.401V14.0137C0 6.28652 6.27117 0 13.9795 0C21.6878 0 27.959 6.28652 27.959 14.0137V14.401C27.959 14.7292 27.9416 15.0625 27.9101 15.3998L25.1763 12.8996C24.6163 7.20119 19.8087 2.73438 13.9795 2.73438C7.77534 2.73438 2.7277 7.79437 2.7277 14.0137V14.401C2.7277 21.0048 11.2155 28.9991 13.9795 31.4267ZM22.3671 29.4627H26.4585V25.3613H22.3671V29.4627ZM13.9795 8.20312C17.1756 8.20312 19.7759 10.8098 19.7759 14.0137C19.7759 17.2176 17.1756 19.8243 13.9795 19.8243C10.7834 19.8243 8.1831 17.2176 8.1831 14.0137C8.1831 10.8098 10.7834 8.20312 13.9795 8.20312ZM13.9795 10.9375C12.2873 10.9375 10.9108 12.3174 10.9108 14.0137C10.9108 15.7097 12.2873 17.0899 13.9795 17.0899C15.6714 17.0899 17.0482 15.7097 17.0482 14.0137C17.0482 12.3174 15.6714 10.9375 13.9795 10.9375ZM33.1618 27.6047L32.3949 26.9034V31.2931C32.3949 33.3372 30.7358 35 28.6968 35H20.0608C18.0218 35 16.3627 33.3372 16.3627 31.2931V26.9034L15.5958 27.6047L13.7576 25.5848L24.3787 15.8714L35 25.5848L33.1618 27.6047ZM29.6672 24.4089L24.3787 19.5727L19.0904 24.4089V31.2929C19.0904 31.8293 19.5257 32.2656 20.0608 32.2656H28.6968C29.2319 32.2656 29.6672 31.8293 29.6672 31.2929V24.4089Z" fill="black"/>
</svg>
