<svg width="37" height="38" viewBox="0 0 37 38" fill="none" xmlns="http://www.w3.org/2000/svg">
<path d="M24.472 20.1024C26.9973 18.1255 28.6333 14.9845 28.6333 11.4533C28.6333 5.48659 23.9627 0.632111 18.2216 0.632111C12.4809 0.632111 7.81032 5.48659 7.81032 11.4533C7.81032 14.9845 9.44591 18.1255 11.9712 20.1024C5.20991 22.7402 0.384521 29.5279 0.384521 37.4658H3.6062C3.6062 29.0893 10.1628 22.275 18.222 22.275C26.2808 22.275 32.8375 29.0893 32.8375 37.4658H36.0591C36.0587 29.5279 31.2337 22.7402 24.472 20.1024ZM11.032 11.4533C11.032 7.33263 14.257 3.98063 18.2216 3.98063C22.1862 3.98063 25.4112 7.33263 25.4112 11.4533C25.4112 15.574 22.1862 18.9264 18.2216 18.9264C14.257 18.9264 11.032 15.574 11.032 11.4533Z" fill="#D2D6D9"/>
</svg>
