<svg width="39" height="38" viewBox="0 0 39 38" fill="none" xmlns="http://www.w3.org/2000/svg">
<path d="M35.5428 2.45965C32.2714 -0.819882 26.9513 -0.819882 23.6799 2.45965L1.92971 24.2017C1.75966 24.3717 1.65439 24.5904 1.622 24.8252L0.0105827 36.7611C-0.0380029 37.1012 0.083461 37.4413 0.318291 37.6761C0.520731 37.8785 0.804147 38 1.08756 38C1.13615 38 1.18473 38 1.23332 37.9919L8.42399 37.0202C9.02321 36.9392 9.44428 36.3886 9.36331 35.7894C9.28233 35.1901 8.73169 34.7691 8.13247 34.85L2.36698 35.6274L3.49255 27.3031L12.2541 36.0647C12.4566 36.2671 12.74 36.3886 13.0234 36.3886C13.3068 36.3886 13.5903 36.2752 13.7927 36.0647L35.5428 14.3226C37.13 12.7355 38.0045 10.6301 38.0045 8.38709C38.0045 6.14405 37.13 4.03868 35.5428 2.45965ZM24.1009 5.13185L27.7529 8.78387L7.90574 28.6311L4.25372 24.9791L24.1009 5.13185ZM13.0315 33.7488L9.46048 30.1777L29.3077 10.3305L32.8787 13.9016L13.0315 33.7488ZM34.4011 12.3387L25.6638 3.60141C26.7731 2.68638 28.1578 2.18433 29.6154 2.18433C31.2754 2.18433 32.8301 2.83213 34.0043 3.99819C35.1784 5.16424 35.8182 6.72708 35.8182 8.38709C35.8182 9.85275 35.3161 11.2293 34.4011 12.3387Z" fill="black"/>
</svg>
