<svg width="169" height="31" viewBox="0 0 169 31" fill="none" xmlns="http://www.w3.org/2000/svg">
<path d="M21.2613 13.9016V4.36129C21.2613 2.99839 20.7161 1.63548 17.4452 1.63548V0.817745H29.4387V1.63548C26.1677 1.63548 25.6226 2.99839 25.6226 4.36129V25.8952C25.6226 27.2581 26.1677 28.621 29.4387 28.621V29.4387H17.4452V28.621C20.7161 28.621 21.2613 27.2581 21.2613 25.8952V15.5371H8.17742V25.8952C8.17742 27.2581 8.72258 28.621 11.9935 28.621V29.4387H0V28.621C3.27097 28.621 3.81613 27.2581 3.81613 25.8952V4.36129C3.81613 2.99839 3.27097 1.63548 0 1.63548V0.817745H11.9935V1.63548C8.72258 1.63548 8.17742 2.99839 8.17742 4.36129V13.9016H21.2613Z" fill="#4D5655"/>
<path d="M30.2565 20.7161H31.3468C32.7097 24.8048 35.7081 28.3484 40.3419 28.3484C43.8855 28.3484 46.0661 25.35 45.2484 22.079C43.6129 16.0823 31.6194 15.8097 31.6194 7.63226C31.6194 3.27097 34.8903 0.545163 39.2516 0.545163C43.8855 0.545163 45.7936 3.81613 46.8839 0.545163H47.7016L48.5194 9.8129H47.429C46.3387 5.72419 43.6129 2.45322 39.5242 2.45322C37.071 2.45322 34.8903 3.81613 34.8903 6.54193C34.8903 8.99516 37.6161 10.9032 39.5242 11.9935C45.2484 15.5371 49.3371 17.4452 49.3371 22.6242C49.3371 26.4403 46.0661 30.529 40.3419 30.529C35.9806 30.529 32.7097 27.2581 32.4371 30.529H31.6194L30.2565 20.7161Z" fill="#4D5655"/>
<path d="M63.7839 13.629C68.1452 13.629 70.5984 11.721 70.5984 8.17742C70.5984 4.90645 68.4177 3.27097 65.4194 2.72581C61.3306 2.45323 59.9677 2.45322 59.9677 3.81613V13.629H63.7839ZM60.2403 25.35C60.2403 26.9855 60.5129 27.5306 63.7839 27.5306C68.1452 27.5306 71.6887 26.1677 71.6887 21.2613C71.6887 16.0823 66.5097 15.2645 62.421 15.2645H60.2403V25.35ZM55.879 4.36129C55.879 2.99839 55.3339 1.63548 51.7903 1.63548V0.817745H63.2387C69.7806 0.817745 74.9597 2.45323 74.9597 8.17742C74.9597 11.721 72.5065 13.629 69.2355 14.4468C73.0516 15.2645 76.3226 17.4452 76.3226 21.5339C76.3226 26.7129 71.9613 29.4387 65.1468 29.4387H51.5177V28.621C55.0613 28.621 55.6065 27.2581 55.6065 25.8952V4.36129H55.879Z" fill="#4D5655"/>
<path d="M102.49 9.8129H101.4C100.037 5.17903 97.0387 1.90807 92.1323 1.90807C85.0452 1.90807 82.0468 7.63226 82.0468 15.2645C82.0468 21.2613 85.3177 27.8032 92.1323 27.8032C96.221 27.8032 99.2194 26.4403 102.218 23.4419L103.035 24.2597C100.31 27.5306 95.9484 29.7113 91.8597 29.7113C83.4097 29.7113 77.1403 24.2597 77.1403 14.9919C77.1403 6.54194 83.1371 0 91.8597 0C97.8565 0 99.7645 3.54355 101.4 0H102.218L102.49 9.8129Z" fill="#4D5655"/>
<path d="M154.553 0H125.66V28.8935H154.553V0Z" fill="#4D5655"/>
<path d="M154.553 14.7194H125.66V29.1661H154.553V14.7194Z" fill="#4D5655"/>
<path d="M125.66 0H154.553L140.106 14.4468L125.66 0Z" fill="#4D5655"/>
<path d="M125.66 28.8935H154.553L140.106 14.4468L125.66 28.8935Z" fill="#4D5655"/>
<path d="M125.66 0V28.8935L111.213 14.4468L125.66 0Z" fill="#4D5655"/>
<path d="M125.66 5.45161V28.8935L111.213 14.4468L125.66 5.45161Z" fill="#4D5655"/>
<path d="M154.553 0V28.8935L169 14.4468L154.553 0Z" fill="#4D5655"/>
<path d="M154.553 5.45161V28.8935L169 14.4468L154.553 5.45161Z" fill="#4D5655"/>
<path d="M130.839 5.17903H149.374L154.553 0H125.66L130.839 5.17903Z" fill="#4D5655"/>
<path d="M154.553 22.3516V28.8935L161.095 22.3516H154.553Z" fill="#4D5655"/>
<path d="M125.66 28.8935H154.553L148.011 22.3516H132.202L125.66 28.8935Z" fill="#4D5655"/>
<path d="M119.118 22.3516L125.66 28.8935V22.3516H119.118Z" fill="#4D5655"/>
<path d="M101.127 0C99.7645 3.54355 97.5839 0 91.5871 0C83.1371 0 77.1403 6.26936 76.8677 14.4468H81.7742C82.0468 7.0871 85.0452 1.63548 91.8597 1.63548C96.7661 1.63548 100.037 4.90645 101.127 9.54032H102.218L101.945 0H101.127Z" fill="#4D5655"/>
<path d="M63.2387 0.817745H51.7903V1.63548C55.3339 1.63548 55.879 2.99839 55.879 4.36129V14.4468H69.7806C69.5081 14.4468 69.5081 14.4468 69.2355 14.4468C72.5065 13.629 74.9597 11.9935 74.9597 8.17742C75.2323 2.72581 70.0532 0.817745 63.2387 0.817745ZM63.7839 13.629H60.2403V3.81613C60.2403 2.18064 61.6032 2.45323 65.6919 2.72581C68.6903 3.27097 70.871 5.17903 70.871 8.17742C70.871 11.721 68.1452 13.629 63.7839 13.629Z" fill="#4D5655"/>
<path d="M46.8839 0.272582C45.7936 3.54355 43.8855 0.272582 39.2516 0.272582C35.1629 0.272582 31.6194 3.27097 31.6194 7.35968C31.6194 10.6306 33.5274 12.8113 36.2532 14.4468H44.9758C43.6129 13.629 41.9774 12.5387 40.0694 11.4484C38.1613 10.3581 35.4355 8.45 35.4355 5.99678C35.4355 3.27097 37.3435 1.90807 40.0694 1.90807C44.1581 1.90807 46.8839 5.17903 47.9742 9.26774H49.0645L48.2468 0H46.8839V0.272582Z" fill="#4D5655"/>
<path d="M17.4452 1.63548C20.7161 1.63548 21.2613 2.99839 21.2613 4.36129V13.9016H8.17742V4.36129C8.17742 2.99839 8.72258 1.63548 11.9935 1.63548V0.817745H0V1.63548C3.27097 1.63548 3.81613 2.99839 3.81613 4.36129V14.4468H25.6226V4.36129C25.6226 2.99839 26.1677 1.63548 29.4387 1.63548V0.817745H17.4452V1.63548Z" fill="#4D5655"/>
</svg>
