<svg width="35" height="35" viewBox="0 0 35 35" fill="none" xmlns="http://www.w3.org/2000/svg">
<path d="M34.1849 8.31429L33.8114 7.93222C32.7263 6.82224 30.9605 6.82224 29.8754 7.93222L29.5102 8.30568L28.7962 9.03597L26.9456 10.929V6.99803C28.6925 6.83867 30.0668 5.33404 30.0668 3.50643C30.0668 1.57302 28.5289 0 26.6389 0H3.42789C1.53782 0 0 1.57295 0 3.50636V31.424H2.92306V35H26.9457V19.7453L33.1058 13.4442L33.6453 12.8923L33.8197 12.7139L34.1848 12.3405C34.7105 11.8027 35 11.0879 35 10.3275C35 9.56705 34.7106 8.85193 34.1849 8.31429ZM5.855 1.03285H26.6389C27.9724 1.03285 29.0571 2.14248 29.0571 3.50643C29.0571 4.87037 27.9723 5.97993 26.6389 5.97993H5.855C6.47311 5.34537 6.85586 4.47075 6.85586 3.50643C6.85586 2.54196 6.47318 1.66742 5.855 1.03285ZM2.92306 5.97986V30.3911H1.00974V3.50636C1.00974 2.14241 2.09461 1.03278 3.42796 1.03278C4.76132 1.03278 5.84612 2.14248 5.84612 3.50636C5.84612 4.8703 4.76125 5.97986 3.42796 5.97986H2.92306ZM25.9361 33.9671H3.93273V7.01278H25.936V11.9617L23.747 14.2008H6.26803V15.2336H22.7374L20.624 17.3954H6.26803V18.4282H19.6144L17.5011 20.5899H6.26803V21.6227H16.4914L16.3153 21.8029L15.741 23.7844H6.26803V24.8173H15.4417L14.8152 26.979H6.26803V28.0118H24.1067V26.979H18.0926L20.6248 26.2112L21.9874 24.8174H24.1066V23.7846H22.9971L25.9361 20.7784V33.9671ZM17.0057 23.054L19.4015 25.5046L15.9963 26.5372L17.0057 23.054ZM20.3583 25.0228L17.4768 22.0753L29.5102 9.76633L32.3918 12.7139L20.3583 25.0228ZM33.471 11.61L33.1059 11.9835L30.2243 9.03597L30.5894 8.66251C31.2809 7.95522 32.406 7.95522 33.0975 8.66251L33.471 9.04457C33.806 9.3872 33.9905 9.84276 33.9905 10.3273C33.9904 10.8118 33.8059 11.2674 33.471 11.61Z" fill="black"/>
</svg>
