<svg width="38" height="38" viewBox="0 0 38 38" fill="none" xmlns="http://www.w3.org/2000/svg">
<g clip-path="url(#clip0)">
<path d="M24.2415 13.7675C23.7499 13.7675 23.3516 14.1658 23.3516 14.6574V31.4771C23.3516 31.9683 23.7499 32.367 24.2415 32.367C24.733 32.367 25.1314 31.9683 25.1314 31.4771V14.6574C25.1314 14.1658 24.733 13.7675 24.2415 13.7675Z" fill="black"/>
<path d="M13.7405 13.7675C13.249 13.7675 12.8506 14.1658 12.8506 14.6574V31.4771C12.8506 31.9683 13.249 32.367 13.7405 32.367C14.2321 32.367 14.6304 31.9683 14.6304 31.4771V14.6574C14.6304 14.1658 14.2321 13.7675 13.7405 13.7675Z" fill="black"/>
<path d="M6.08711 11.3128V33.2388C6.08711 34.5347 6.56232 35.7518 7.39245 36.625C8.21876 37.5007 9.36871 37.9978 10.5722 37.9999H27.4099C28.6137 37.9978 29.7637 37.5007 30.5896 36.625C31.4198 35.7518 31.895 34.5347 31.895 33.2388V11.3128C33.5452 10.8748 34.6145 9.28061 34.3937 7.58732C34.1726 5.89437 32.7303 4.62796 31.0228 4.62761H26.4664V3.51521C26.4717 2.57974 26.1018 1.68147 25.4395 1.02063C24.7773 0.360137 23.8777 -0.00765295 22.9422 -5.1412e-06H15.0399C14.1044 -0.00765295 13.2048 0.360137 12.5426 1.02063C11.8803 1.68147 11.5104 2.57974 11.5157 3.51521V4.62761H6.95931C5.25176 4.62796 3.80945 5.89437 3.58836 7.58732C3.36762 9.28061 4.43692 10.8748 6.08711 11.3128ZM27.4099 36.22H10.5722C9.05063 36.22 7.86696 34.9129 7.86696 33.2388V11.3911H30.1151V33.2388C30.1151 34.9129 28.9315 36.22 27.4099 36.22ZM13.2955 3.51521C13.2896 3.05182 13.4718 2.60581 13.8006 2.27869C14.1291 1.95158 14.5762 1.77185 15.0399 1.77985H22.9422C23.4059 1.77185 23.853 1.95158 24.1815 2.27869C24.5103 2.60546 24.6925 3.05182 24.6866 3.51521V4.62761H13.2955V3.51521ZM6.95931 6.40747H31.0228C31.9075 6.40747 32.6247 7.12463 32.6247 8.00934C32.6247 8.89405 31.9075 9.61121 31.0228 9.61121H6.95931C6.07459 9.61121 5.35744 8.89405 5.35744 8.00934C5.35744 7.12463 6.07459 6.40747 6.95931 6.40747Z" fill="black"/>
<path d="M18.991 13.7675C18.4995 13.7675 18.1011 14.1658 18.1011 14.6574V31.4771C18.1011 31.9683 18.4995 32.367 18.991 32.367C19.4826 32.367 19.8809 31.9683 19.8809 31.4771V14.6574C19.8809 14.1658 19.4826 13.7675 18.991 13.7675Z" fill="black"/>
</g>
<defs>
<clipPath id="clip0">
<rect width="38" height="38" fill="white"/>
</clipPath>
</defs>
</svg>
