<svg width="33" height="35" viewBox="0 0 33 35" fill="none" xmlns="http://www.w3.org/2000/svg">
<mask id="path-1-inside-1" fill="white">
<path d="M16.0055 0.113293L0.332832 7.67945C0.136299 7.77433 0.0114746 7.97325 0.0114746 8.19146V26.809C0.0114746 27.0272 0.136367 27.2261 0.332832 27.321L16.0055 34.8872C16.3178 35.038 16.6819 35.038 16.9943 34.8872L32.667 27.321C32.8635 27.2261 32.9883 27.0272 32.9883 26.809V8.19146C32.9883 7.97325 32.8634 7.77433 32.667 7.67945L16.9943 0.113293C16.6819 -0.037439 16.3178 -0.037439 16.0055 0.113293Z"/>
<path d="M0.106016 7.88003C0.0462695 7.97102 0.0114746 8.07832 0.0114746 8.19146V26.809C0.0114746 27.0272 0.136367 27.2261 0.332832 27.321L16.0055 34.8872C16.1616 34.9626 16.3308 35 16.4999 35V15.7943L0.106016 7.88003Z"/>
<path d="M32.8939 7.88003C32.9536 7.97102 32.9883 8.07832 32.9883 8.19146V26.809C32.9883 27.0272 32.8635 27.2261 32.667 27.321L16.9943 34.8872C16.8381 34.9626 16.669 35 16.4999 35V15.7943L32.8939 7.88003Z"/>
<path d="M4.70178 25.8164C4.61906 25.8164 4.53464 25.7981 4.45528 25.7598L2.03556 24.5916C1.75242 24.455 1.63416 24.1152 1.77074 23.8326C1.90677 23.55 2.24768 23.4323 2.52973 23.5678L4.94944 24.736C5.23259 24.8726 5.35085 25.2124 5.21427 25.495C5.11658 25.6981 4.91335 25.8164 4.70178 25.8164Z"/>
<path d="M6.92865 24.3667C6.84593 24.3667 6.76151 24.3484 6.68214 24.3101L2.03863 22.0686C1.75603 21.932 1.63722 21.5922 1.7738 21.3096C1.90984 21.0275 2.25129 20.9093 2.5328 21.0448L7.17624 23.2863C7.45884 23.4229 7.57765 23.7627 7.44107 24.0453C7.34345 24.2484 7.14022 24.3667 6.92865 24.3667Z"/>
<path d="M27.3383 10.5529L10.8868 2.60519L6.55006 4.70724L23.0385 12.6672L27.3383 10.5529Z"/>
<path d="M23.0385 12.6672L23.0386 18.8337C23.0386 19.0433 23.2577 19.1808 23.4465 19.0897L27.017 17.366C27.2136 17.2711 27.3384 17.0722 27.3384 16.854L27.3383 10.5529L23.0385 12.6672Z"/>
</mask>
<path d="M16.0055 0.113293L0.332832 7.67945C0.136299 7.77433 0.0114746 7.97325 0.0114746 8.19146V26.809C0.0114746 27.0272 0.136367 27.2261 0.332832 27.321L16.0055 34.8872C16.3178 35.038 16.6819 35.038 16.9943 34.8872L32.667 27.321C32.8635 27.2261 32.9883 27.0272 32.9883 26.809V8.19146C32.9883 7.97325 32.8634 7.77433 32.667 7.67945L16.9943 0.113293C16.6819 -0.037439 16.3178 -0.037439 16.0055 0.113293Z" fill="white"/>
<path d="M0.106016 7.88003C0.0462695 7.97102 0.0114746 8.07832 0.0114746 8.19146V26.809C0.0114746 27.0272 0.136367 27.2261 0.332832 27.321L16.0055 34.8872C16.1616 34.9626 16.3308 35 16.4999 35V15.7943L0.106016 7.88003Z" fill="white"/>
<path d="M32.8939 7.88003C32.9536 7.97102 32.9883 8.07832 32.9883 8.19146V26.809C32.9883 27.0272 32.8635 27.2261 32.667 27.321L16.9943 34.8872C16.8381 34.9626 16.669 35 16.4999 35V15.7943L32.8939 7.88003Z" fill="white"/>
<path d="M4.70178 25.8164C4.61906 25.8164 4.53464 25.7981 4.45528 25.7598L2.03556 24.5916C1.75242 24.455 1.63416 24.1152 1.77074 23.8326C1.90677 23.55 2.24768 23.4323 2.52973 23.5678L4.94944 24.736C5.23259 24.8726 5.35085 25.2124 5.21427 25.495C5.11658 25.6981 4.91335 25.8164 4.70178 25.8164Z" fill="white"/>
<path d="M6.92865 24.3667C6.84593 24.3667 6.76151 24.3484 6.68214 24.3101L2.03863 22.0686C1.75603 21.932 1.63722 21.5922 1.7738 21.3096C1.90984 21.0275 2.25129 20.9093 2.5328 21.0448L7.17624 23.2863C7.45884 23.4229 7.57765 23.7627 7.44107 24.0453C7.34345 24.2484 7.14022 24.3667 6.92865 24.3667Z" fill="white"/>
<path d="M27.3383 10.5529L10.8868 2.60519L6.55006 4.70724L23.0385 12.6672L27.3383 10.5529Z" fill="white"/>
<path d="M23.0385 12.6672L23.0386 18.8337C23.0386 19.0433 23.2577 19.1808 23.4465 19.0897L27.017 17.366C27.2136 17.2711 27.3384 17.0722 27.3384 16.854L27.3383 10.5529L23.0385 12.6672Z" fill="white"/>
<path d="M0.332832 27.321L0.22411 27.5461L0.224144 27.5462L0.332832 27.321ZM32.667 27.321L32.7756 27.5462L32.7756 27.5461L32.667 27.321ZM-0.238525 8.19146V26.809H0.261475V8.19146H-0.238525ZM-0.238525 26.809C-0.238525 27.1232 -0.058707 27.4095 0.22411 27.5461L0.441554 27.0959C0.331441 27.0427 0.261475 26.9312 0.261475 26.809H-0.238525ZM0.224144 27.5462L15.8968 35.1123L16.1142 34.662L0.44152 27.0959L0.224144 27.5462ZM17.103 35.1123L32.7756 27.5462L32.5583 27.0959L16.8856 34.662L17.103 35.1123ZM32.7756 27.5461C33.0586 27.4095 33.2383 27.1231 33.2383 26.809H32.7383C32.7383 26.9313 32.6684 27.0427 32.5583 27.0959L32.7756 27.5461ZM33.2383 26.809V8.19146H32.7383V26.809H33.2383ZM16.7499 35V15.7943H16.2499V35H16.7499ZM23.1488 12.8916L27.4486 10.7772L27.228 10.3285L22.9282 12.4429L23.1488 12.8916ZM16.0055 0.113293L15.7882 -0.33701L15.7881 -0.336982L16.0055 0.113293ZM0.332832 7.67945L0.115457 7.22917L0.115449 7.22917L0.332832 7.67945ZM16.0055 34.8872L16.2229 34.4369L15.7881 35.3374L16.0055 34.8872ZM16.9943 34.8872L17.2117 35.3374L16.7769 34.4369L16.9943 34.8872ZM32.667 7.67945L32.8844 7.2292L32.8843 7.22917L32.667 7.67945ZM16.9943 0.113293L17.2116 -0.336982L17.2116 -0.33701L16.9943 0.113293ZM0.106016 7.88003L0.323391 7.42976L-0.0713412 7.2392L-0.311932 7.60559L0.106016 7.88003ZM16.4999 15.7943L16.2825 16.2446L16.4999 16.3496L16.7173 16.2446L16.4999 15.7943ZM32.8939 7.88003L33.3118 7.60559L33.0712 7.2392L32.6765 7.42976L32.8939 7.88003ZM4.45528 25.7598L4.23789 26.2101L4.23805 26.2101L4.45528 25.7598ZM2.03556 24.5916L2.25294 24.1413L2.2528 24.1413L2.03556 24.5916ZM1.77074 23.8326L2.22092 24.0502L2.22126 24.0495L1.77074 23.8326ZM2.52973 23.5678L2.74712 23.1175L2.74623 23.1171L2.52973 23.5678ZM4.94944 24.736L4.73205 25.1863L4.73221 25.1864L4.94944 24.736ZM5.21427 25.495L4.76409 25.2775L4.76368 25.2783L5.21427 25.495ZM6.68214 24.3101L6.46478 24.7604L6.46492 24.7604L6.68214 24.3101ZM2.03863 22.0686L1.82105 22.5188L1.82127 22.5189L2.03863 22.0686ZM1.7738 21.3096L2.22398 21.5272L2.22416 21.5268L1.7738 21.3096ZM2.5328 21.0448L2.75016 20.5945L2.74964 20.5942L2.5328 21.0448ZM7.17624 23.2863L7.39382 22.8361L7.39361 22.836L7.17624 23.2863ZM7.44107 24.0453L6.99089 23.8277L6.99042 23.8287L7.44107 24.0453ZM27.3383 10.5529L27.8383 10.5528L27.8383 10.2391L27.5558 10.1026L27.3383 10.5529ZM10.8868 2.60519L11.1043 2.15497L10.8864 2.04972L10.6687 2.15526L10.8868 2.60519ZM6.55006 4.70724L6.33197 4.25731L5.40185 4.70815L6.33268 5.15751L6.55006 4.70724ZM23.0385 12.6672L23.5385 12.6672L23.5385 12.3534L23.2559 12.2169L23.0385 12.6672ZM23.0386 18.8337L23.5386 18.8337L23.5386 18.8337L23.0386 18.8337ZM23.4465 19.0897L23.6638 19.54L23.6638 19.5399L23.4465 19.0897ZM27.017 17.366L27.2344 17.8163L27.2344 17.8163L27.017 17.366ZM27.3384 16.854L27.8384 16.854L27.8384 16.854L27.3384 16.854ZM15.7881 -0.336982L0.115457 7.22917L0.550207 8.12972L16.2229 0.563569L15.7881 -0.336982ZM0.115449 7.22917C-0.253918 7.4075 -0.488525 7.7814 -0.488525 8.19146H0.511475C0.511475 8.16511 0.526516 8.14116 0.550215 8.12972L0.115449 7.22917ZM15.7881 35.3374C16.2378 35.5545 16.762 35.5545 17.2117 35.3374L16.7769 34.4369C16.6019 34.5214 16.3979 34.5214 16.2229 34.4369L15.7881 35.3374ZM33.4883 8.19146C33.4883 7.78132 33.2536 7.40749 32.8844 7.2292L32.4495 8.12969C32.4733 8.14116 32.4883 8.16519 32.4883 8.19146H33.4883ZM32.8843 7.22917L17.2116 -0.336982L16.7769 0.563569L32.4496 8.12972L32.8843 7.22917ZM17.2116 -0.33701C16.7619 -0.554004 16.2378 -0.554004 15.7882 -0.33701L16.2228 0.563597C16.3979 0.479126 16.6019 0.479126 16.7769 0.563597L17.2116 -0.33701ZM-0.311932 7.60559C-0.421694 7.77274 -0.488525 7.97458 -0.488525 8.19146H0.511475C0.511475 8.18206 0.514233 8.1693 0.523963 8.15448L-0.311932 7.60559ZM15.7881 35.3374C16.0134 35.4462 16.2571 35.5 16.4999 35.5V34.5C16.4045 34.5 16.3099 34.4789 16.223 34.4369L15.7881 35.3374ZM16.7173 15.3441L0.323391 7.42976L-0.111359 8.33031L16.2825 16.2446L16.7173 15.3441ZM32.4759 8.15448C32.4855 8.169 32.4883 8.18173 32.4883 8.19146H33.4883C33.4883 7.97491 33.4218 7.77304 33.3118 7.60559L32.4759 8.15448ZM16.7768 34.4369C16.6899 34.4789 16.5953 34.5 16.4999 34.5V35.5C16.7427 35.5 16.9864 35.4462 17.2117 35.3374L16.7768 34.4369ZM16.7173 16.2446L33.1113 8.33031L32.6765 7.42976L16.2825 15.3441L16.7173 16.2446ZM4.70178 25.3164C4.69287 25.3164 4.68285 25.3144 4.6725 25.3094L4.23805 26.2101C4.38643 26.2817 4.54526 26.3164 4.70178 26.3164V25.3164ZM4.67266 25.3095L2.25294 24.1413L1.81818 25.0419L4.23789 26.2101L4.67266 25.3095ZM2.2528 24.1413C2.2186 24.1248 2.20452 24.0841 2.22092 24.0502L1.32056 23.615C1.06379 24.1463 1.28624 24.7853 1.81833 25.0419L2.2528 24.1413ZM2.22126 24.0495C2.23658 24.0176 2.27785 24.0015 2.31323 24.0185L2.74623 23.1171C2.21751 22.8631 1.57696 23.0824 1.32022 23.6157L2.22126 24.0495ZM2.31234 24.0181L4.73205 25.1863L5.16684 24.2858L2.74712 23.1175L2.31234 24.0181ZM4.73221 25.1864C4.76641 25.2029 4.78049 25.2435 4.76409 25.2775L5.66445 25.7126C5.92121 25.1814 5.69877 24.5424 5.16668 24.2857L4.73221 25.1864ZM4.76368 25.2783C4.75281 25.3009 4.72947 25.3164 4.70178 25.3164V26.3164C5.09723 26.3164 5.48036 26.0954 5.66486 25.7118L4.76368 25.2783ZM6.92865 23.8667C6.91974 23.8667 6.90972 23.8647 6.89937 23.8597L6.46492 24.7604C6.6133 24.832 6.77213 24.8667 6.92865 24.8667V23.8667ZM6.8995 23.8598L2.25599 21.6183L1.82127 22.5189L6.46478 24.7604L6.8995 23.8598ZM2.2562 21.6184C2.22163 21.6017 2.20786 21.5605 2.22398 21.5272L1.32363 21.092C1.06659 21.6238 1.29043 22.2623 1.82105 22.5188L2.2562 21.6184ZM2.22416 21.5268C2.23972 21.4945 2.28193 21.4789 2.31596 21.4953L2.74964 20.5942C2.22066 20.3396 1.57995 20.5605 1.32345 21.0924L2.22416 21.5268ZM2.31544 21.495L6.95888 23.7365L7.39361 22.836L2.75016 20.5945L2.31544 21.495ZM6.95867 23.7364C6.99324 23.7532 7.00702 23.7943 6.99089 23.8277L7.89125 24.2628C8.14828 23.731 7.92444 23.0925 7.39382 22.8361L6.95867 23.7364ZM6.99042 23.8287C6.97957 23.8512 6.95626 23.8667 6.92865 23.8667V24.8667C7.32418 24.8667 7.70733 24.6455 7.89172 24.2619L6.99042 23.8287ZM27.5558 10.1026L11.1043 2.15497L10.6693 3.0554L27.1208 11.0031L27.5558 10.1026ZM10.6687 2.15526L6.33197 4.25731L6.76814 5.15717L11.1049 3.05512L10.6687 2.15526ZM6.33268 5.15751L22.8211 13.1175L23.2559 12.2169L6.76743 4.25696L6.33268 5.15751ZM22.5385 12.6672L22.5386 18.8337L23.5386 18.8337L23.5385 12.6672L22.5385 12.6672ZM22.5386 18.8337C22.5386 19.412 23.1431 19.7913 23.6638 19.54L23.2292 18.6394C23.3723 18.5703 23.5386 18.6745 23.5386 18.8337H22.5386ZM23.6638 19.5399L27.2344 17.8163L26.7997 16.9157L23.2291 18.6394L23.6638 19.5399ZM27.2344 17.8163C27.6038 17.6379 27.8384 17.264 27.8384 16.854H26.8384C26.8384 16.8803 26.8233 16.9043 26.7996 16.9157L27.2344 17.8163ZM27.8384 16.854L27.8383 10.5528L26.8383 10.5529L26.8384 16.854L27.8384 16.854Z" fill="black" mask="url(#path-1-inside-1)"/>
</svg>
