<svg width="55" height="72" viewBox="0 0 55 72" fill="none" xmlns="http://www.w3.org/2000/svg">
<path d="M25.0955 27.8369L23.4925 34.4779C25.5535 34.9359 31.851 36.9969 32.767 33.2184C33.683 29.3254 27.1565 28.4094 25.0955 27.8369Z" fill="#D2D6D9"/>
<path d="M32.767 33.3329C33.7975 29.4399 27.1565 28.4094 25.0955 27.9514L23.4925 34.4779" fill="#D2D6D9"/>
<path d="M27.3855 18.7914L25.897 24.8599C27.6145 25.3179 32.8815 27.0354 33.683 23.6004C34.4845 20.0509 29.103 19.2494 27.3855 18.7914Z" fill="#D2D6D9"/>
<path d="M33.683 23.6004C34.599 20.0509 29.103 19.2494 27.3855 18.7914L25.897 24.8599" fill="#D2D6D9"/>
<path d="M34.141 0.814875C19.3705 -2.84912 4.48553 6.19637 0.821528 20.8524C-2.84247 35.6229 6.08853 50.5078 20.859 54.1718C35.6295 57.8358 50.5145 48.9048 54.1785 34.1344C57.8425 19.4784 48.9115 4.59337 34.141 0.814875ZM39.637 23.6004C39.2935 26.2339 37.805 27.6079 35.744 28.0659C38.492 29.4399 39.866 31.6154 38.492 35.3939C36.889 40.0883 32.996 40.4318 27.8435 39.5159L26.584 44.5538L23.607 43.6378L24.8665 38.7144C24.065 38.4854 23.2635 38.2564 22.462 38.1419L21.2025 43.0653L18.2255 42.2638L19.485 37.2258C18.798 36.9968 18.111 36.8824 17.3095 36.6534L13.4165 35.6229L14.905 32.1879L17.0805 32.7604C17.882 32.9894 18.34 32.4169 18.4545 32.0734L20.401 24.1729C20.5155 24.1729 20.63 24.1729 20.7445 24.2874C20.63 24.2874 20.5155 24.1729 20.401 24.1729L21.775 18.5624C21.775 17.8754 21.546 17.0739 20.401 16.8449L18.2255 16.2724L19.027 13.0664L23.149 14.0969C23.7215 14.2114 24.4085 14.4404 25.0955 14.5549L26.355 9.63137L29.332 10.4329L28.0725 15.2419C28.874 15.4709 29.6755 15.5854 30.477 15.8144L31.622 11.0054L34.599 11.8069L33.3395 16.7304C37.347 17.9899 40.2095 19.9364 39.637 23.6004Z" fill="#D2D6D9"/>
<path d="M0.821528 20.8524C-2.84247 35.6229 6.08853 50.5078 20.859 54.1718C35.6295 57.8358 50.5145 48.9048 54.1785 34.1344C57.8425 19.3639 48.9115 4.47887 34.141 0.814875L0.821528 20.8524ZM39.637 23.6004C39.2935 26.2339 37.805 27.6079 35.744 28.0659C38.492 29.4399 39.866 31.6154 38.492 35.3939C36.889 40.0883 32.996 40.4318 27.8435 39.5159L26.584 44.5538L23.607 43.6378L24.8665 38.7144C24.065 38.4854 23.2635 38.2564 22.462 38.1419L21.2025 43.0653L18.2255 42.2638L19.485 37.2258C18.798 36.9968 18.111 36.8824 17.3095 36.6534L13.4165 35.6229L14.905 32.1879L17.0805 32.7604C17.882 32.9894 18.34 32.4169 18.4545 32.0734L20.401 24.1729C20.5155 24.1729 20.63 24.1729 20.7445 24.2874C20.63 24.2874 20.5155 24.1729 20.401 24.1729L21.775 18.5624C21.775 17.8754 21.546 17.0739 20.401 16.8449L18.2255 16.2724L19.027 13.0664L23.149 14.0969C23.7215 14.2114 24.4085 14.4404 25.0955 14.5549L26.355 9.63137L29.332 10.4329L28.0725 15.2419C28.874 15.4709 29.6755 15.5854 30.477 15.8144L31.622 11.0054L34.599 11.8069L33.3395 16.7304C37.347 17.9899 40.2095 19.9364 39.637 23.6004Z" fill="#D2D6D9"/>
<path d="M53.9495 35.1649L39.0645 20.2799C39.637 21.1959 39.9805 22.3409 39.7515 23.7149C39.408 26.3484 37.9195 27.7224 35.8585 28.1804C38.6065 29.5544 39.9805 31.7299 38.6065 35.5084C37.0035 40.2029 33.1105 40.5464 27.958 39.6304L26.6985 44.6683L23.607 43.6378L24.8665 38.7144C24.065 38.4854 23.2635 38.2564 22.462 38.1419L21.2025 43.0653L20.5155 42.8363L32.1945 54.5153C42.2705 52.7978 50.9725 45.4698 53.9495 35.1649Z" fill="#D2D6D9"/>
<path d="M6.77552 61.1563C7.34802 61.1563 7.80602 61.2708 8.26402 61.4998C8.72202 61.7288 9.06552 61.9578 9.29452 62.3013C9.52352 62.6448 9.75252 63.1028 9.86702 63.5608C9.98152 64.0188 10.096 64.5913 10.096 65.0493C10.096 65.8508 9.98152 66.6523 9.63802 67.4538C9.29452 68.2553 8.95102 68.8278 8.37852 69.4003C7.80602 69.9728 7.23352 70.4308 6.43202 70.6598C5.74503 71.0033 4.94353 71.1178 4.02753 71.1178C3.91303 71.1178 3.68403 71.1178 3.45503 71.1178C3.22603 71.1178 2.88253 71.1178 2.53903 71.0033C2.19553 71.0033 1.85203 70.8888 1.39403 70.7743C1.05053 70.6598 0.592528 70.5453 0.249028 70.4308L3.34053 57.2633L6.20302 56.8053L5.05802 61.4998C5.28702 61.3853 5.51603 61.2708 5.74503 61.2708C6.20302 61.2708 6.54652 61.1563 6.77552 61.1563ZM4.48553 68.9423C4.94353 68.9423 5.28702 68.8278 5.63052 68.5988C5.97402 68.3698 6.31752 68.1408 6.54652 67.7973C6.77552 67.4538 7.00452 67.1103 7.23352 66.6523C7.34802 66.1943 7.46252 65.7363 7.46252 65.2783C7.46252 64.7058 7.34802 64.2478 7.11902 63.9043C6.89002 63.5608 6.54652 63.4463 6.08852 63.4463C5.97403 63.4463 5.74502 63.4463 5.40153 63.5608C5.17252 63.6753 4.82903 63.7898 4.71453 63.9043L3.56953 68.8278C3.68403 68.8278 3.68403 68.8278 3.79853 68.8278H3.91303C4.02753 68.8278 4.02753 68.8278 4.14203 68.8278C4.14203 68.9423 4.25653 68.9423 4.48553 68.9423Z" fill="#D2D6D9"/>
<path d="M13.073 70.8888H10.325L12.615 61.3853H15.363L13.073 70.8888ZM14.447 60.2403C14.1035 60.2403 13.76 60.1258 13.4165 59.8968C13.073 59.6678 12.9585 59.3243 12.9585 58.8663C12.9585 58.6373 12.9585 58.4083 13.073 58.1793C13.1875 57.9503 13.302 57.7213 13.531 57.6068C13.6455 57.4923 13.8745 57.2633 14.1035 57.2633C14.3325 57.1488 14.5615 57.1488 14.7905 57.1488C15.134 57.1488 15.4775 57.2633 15.821 57.4923C16.1645 57.7213 16.279 58.0648 16.279 58.5228C16.279 58.7518 16.279 58.9808 16.1645 59.2098C16.05 59.4388 15.9355 59.6678 15.7065 59.7823C15.592 59.8968 15.363 60.1258 15.134 60.1258C14.905 60.1258 14.676 60.2403 14.447 60.2403Z" fill="#D2D6D9"/>
<path d="M17.7675 58.9808L20.63 58.5228L19.943 61.3853H22.92L22.3475 63.5608H19.3705L18.569 66.8813C18.4545 67.1103 18.4545 67.4538 18.4545 67.6828C18.4545 67.9118 18.4545 68.1408 18.569 68.2553C18.6835 68.4843 18.798 68.5988 18.9125 68.7133C19.1415 68.8278 19.3705 68.8278 19.714 68.8278C20.0575 68.8278 20.2865 68.8278 20.5155 68.7133C20.7445 68.7133 21.088 68.5988 21.317 68.4843L21.546 70.5453C21.2025 70.6598 20.7445 70.7743 20.401 70.8888C19.943 71.1178 19.485 71.1178 18.9125 71.1178C18.111 71.1178 17.424 71.0033 16.966 70.7743C16.508 70.5453 16.1645 70.2018 15.9355 69.7438C15.7065 69.2858 15.7065 68.8278 15.7065 68.2553C15.7065 67.6828 15.821 67.1103 15.9355 66.5378L17.7675 58.9808Z" fill="#D2D6D9"/>
<path d="M22.8055 67.1103C22.8055 66.3088 22.92 65.5073 23.2635 64.8203C23.4925 64.1333 23.9505 63.4463 24.4085 62.8738C24.8665 62.3013 25.5535 61.9578 26.2405 61.6143C26.9275 61.2708 27.729 61.1563 28.645 61.1563C29.2175 61.1563 29.6755 61.1563 30.1335 61.2708C30.5915 61.3853 30.935 61.4998 31.2785 61.7288L30.3625 63.7898C30.1335 63.6753 29.9045 63.5608 29.561 63.5608C29.332 63.4463 28.9885 63.4463 28.645 63.4463C27.729 63.4463 27.042 63.7898 26.4695 64.3623C25.897 64.9348 25.668 65.8508 25.668 66.8813C25.668 67.4538 25.7825 68.0263 26.126 68.3698C26.355 68.7133 26.9275 68.9423 27.6145 68.9423C27.958 68.9423 28.3015 68.9423 28.645 68.8278C28.9885 68.7133 29.2175 68.7133 29.561 68.5988L29.79 70.7743C29.4465 70.8888 29.103 71.0033 28.645 71.1178C28.187 71.2323 27.729 71.2323 27.1565 71.2323C26.355 71.2323 25.7825 71.1178 25.21 70.8888C24.6375 70.6598 24.294 70.4308 23.9505 69.9728C23.607 69.6293 23.378 69.1713 23.2635 68.7133C22.8055 68.1408 22.8055 67.6828 22.8055 67.1103Z" fill="#D2D6D9"/>
<path d="M34.7135 71.2323C34.0265 71.2323 33.5685 71.1178 32.996 70.8888C32.538 70.6598 32.08 70.4308 31.851 70.0873C31.5075 69.7438 31.2785 69.2858 31.164 68.8278C31.0495 68.3698 30.935 67.7973 30.935 67.2248C30.935 66.5378 31.0495 65.7363 31.2785 65.0493C31.5075 64.3623 31.851 63.6753 32.309 63.1028C32.767 62.5303 33.3395 62.0723 34.0265 61.7288C34.7135 61.3853 35.4005 61.1563 36.3165 61.1563C37.0035 61.1563 37.4615 61.2708 38.034 61.4998C38.492 61.7288 38.95 61.9578 39.179 62.3013C39.5225 62.6448 39.7515 63.1028 39.866 63.5608C39.9805 64.0188 40.095 64.5913 40.095 65.1638C40.095 65.8508 39.9805 66.6523 39.7515 67.3393C39.5225 68.0263 39.179 68.7133 38.721 69.2858C38.263 69.8583 37.6905 70.3163 37.0035 70.6598C36.3165 71.0033 35.6295 71.2323 34.7135 71.2323ZM36.0875 63.4463C35.744 63.4463 35.286 63.5608 35.057 63.7898C34.7135 64.0188 34.4845 64.3623 34.2555 64.7058C34.0265 65.0493 33.912 65.3928 33.7975 65.8508C33.683 66.3088 33.683 66.6523 33.683 66.9958C33.683 67.5683 33.7975 68.0263 34.0265 68.3698C34.2555 68.7133 34.599 68.8278 35.057 68.8278C35.515 68.8278 35.8585 68.7133 36.0875 68.4843C36.431 68.2553 36.66 67.9118 36.889 67.5683C37.118 67.2248 37.2325 66.8813 37.347 66.4233C37.4615 65.9653 37.4615 65.6218 37.4615 65.2783C37.4615 64.7058 37.347 64.2478 37.118 63.9043C36.889 63.5608 36.5455 63.4463 36.0875 63.4463Z" fill="#D2D6D9"/>
<path d="M43.072 70.8888H40.324L42.614 61.3853H45.362L43.072 70.8888ZM44.3315 60.2403C43.988 60.2403 43.6445 60.1258 43.301 59.8968C42.9575 59.6678 42.843 59.3243 42.843 58.8663C42.843 58.6373 42.843 58.4083 42.9575 58.1793C43.072 57.9503 43.1865 57.7213 43.4155 57.6068C43.53 57.4923 43.759 57.2633 43.988 57.2633C44.217 57.1488 44.446 57.1488 44.675 57.1488C45.0185 57.1488 45.362 57.2633 45.7055 57.4923C46.049 57.7213 46.1635 58.0648 46.1635 58.5228C46.1635 58.7518 46.1635 58.9808 46.049 59.2098C45.9345 59.4388 45.82 59.6678 45.591 59.7823C45.4765 59.8968 45.2475 60.1258 45.0185 60.1258C44.7895 60.1258 44.5605 60.2403 44.3315 60.2403Z" fill="#D2D6D9"/>
<path d="M47.3085 61.8433C47.5375 61.7288 47.7665 61.7288 47.9955 61.6143C48.2245 61.4998 48.568 61.4998 48.797 61.3853C49.1405 61.2708 49.484 61.2708 49.8275 61.2708C50.171 61.2708 50.629 61.1563 51.087 61.1563C52.461 61.1563 53.4915 61.6143 54.064 62.4158C54.6365 63.2173 54.751 64.3623 54.293 65.8508L53.0335 71.0033H50.4L51.545 65.9653C51.6595 65.6218 51.6595 65.3928 51.774 65.0493C51.774 64.7058 51.774 64.4768 51.774 64.2478C51.774 64.0188 51.6595 63.7898 51.4305 63.6753C51.2015 63.5608 50.9725 63.4463 50.629 63.4463C50.2855 63.4463 49.942 63.4463 49.5985 63.5608L47.881 71.0033H45.133L47.3085 61.8433Z" fill="#D2D6D9"/>
<path d="M13.4165 35.7374L18.569 40.8899L19.485 37.2258C18.798 36.9968 18.111 36.8824 17.3095 36.6534L13.4165 35.7374Z" fill="#D2D6D9"/>
<path d="M34.0265 15.2419L33.5685 16.7304C34.9425 17.1884 36.202 17.7609 37.2325 18.4479L34.0265 15.2419Z" fill="#D2D6D9"/>
<path d="M29.4465 10.4329L28.187 15.2419C28.9885 15.4709 29.79 15.5854 30.5915 15.8144L31.393 12.3794L29.4465 10.4329Z" fill="#D2D6D9"/>
<path d="M34.828 11.6924L33.5685 16.6159L33.683 16.7304C37.118 17.8754 39.7515 19.7074 39.7515 22.7989L53.4915 36.5389C53.7205 35.7374 53.9495 34.9359 54.1785 34.2489C54.4075 33.3329 54.522 32.5314 54.6365 31.6154L34.828 11.6924Z" fill="#D2D6D9"/>
<path d="M37.4615 53.1413L27.042 42.7219L26.584 44.4394L23.607 43.6378L24.523 40.0883L22.462 38.0274L21.2025 42.9508L18.2255 42.1493V42.0348L18.111 42.1493L30.5915 54.6298C32.996 54.5153 35.286 53.9428 37.4615 53.1413Z" fill="#D2D6D9"/>
<path d="M40.324 51.7673L27.958 39.4014C27.958 39.4014 27.958 39.4014 27.8435 39.4014L26.584 44.4394L23.7215 43.7523L34.141 54.1718C36.3165 53.5993 38.3775 52.7978 40.324 51.7673Z" fill="#D2D6D9"/>
</svg>
