<svg width="121" height="37" viewBox="0 0 121 37" fill="none" xmlns="http://www.w3.org/2000/svg">
<path d="M44.2496 35.6295L50.3794 1.14934H59.9572L54.019 35.6295H44.2496Z" fill="#D2D6D9"/>
<path d="M44.2496 35.6295L52.1034 1.14934H59.9572L54.019 35.6295H44.2496Z" fill="#D2D6D9"/>
<path d="M88.6907 1.53245C86.7751 0.766225 83.7102 0 79.8791 0C70.3013 0 63.4052 4.78891 63.4052 11.6849C63.4052 16.857 68.1941 19.5388 72.0253 21.2628C75.8564 22.9868 77.0057 24.1361 77.0057 25.6686C77.0057 27.9673 73.9408 29.1166 71.259 29.1166C67.4279 29.1166 65.3208 28.5419 62.0643 27.201L60.7234 26.6264L59.3825 34.4802C61.6812 35.438 65.8955 36.3958 70.3013 36.3958C80.4538 36.3958 87.1582 31.6068 87.1582 24.3277C87.1582 20.305 84.668 17.2401 78.9213 14.7499C75.4733 13.0258 73.3662 12.0681 73.3662 10.3441C73.3662 8.8116 75.0902 7.27915 78.9213 7.27915C82.1778 7.27915 84.4765 7.85382 86.2005 8.62005L87.1582 9.00316L88.6907 1.53245Z" fill="#D2D6D9"/>
<path d="M88.6907 1.53245C86.7751 0.766225 83.7102 0 79.8791 0C70.3013 0 65.1292 4.78891 65.1292 11.6849C65.1292 16.857 68.1941 19.5388 72.0253 21.2628C75.8564 22.9868 77.0057 24.1361 77.0057 25.6686C77.0057 27.9673 73.9408 29.1166 71.259 29.1166C67.4279 29.1166 65.3208 28.5419 62.0643 27.201L60.7234 26.6264L59.3825 34.4802C61.6812 35.438 65.8955 36.3958 70.3013 36.3958C80.4538 36.3958 87.1582 31.6068 87.1582 24.3277C87.1582 20.305 84.668 17.2401 78.9213 14.7499C75.4733 13.0258 73.3662 12.0681 73.3662 10.3441C73.3662 8.8116 75.0902 7.27915 78.9213 7.27915C82.1778 7.27915 84.4765 7.85382 86.2005 8.62005L87.1582 9.00316L88.6907 1.53245Z" fill="#D2D6D9"/>
<path d="M105.165 1.14934C102.866 1.14934 101.142 1.3409 100.184 3.63957L85.8174 35.6295H96.1614L98.077 29.8828H110.337L111.486 35.6295H120.681L112.635 1.14934H105.165ZM100.759 24.1361C101.333 22.4121 104.59 13.9836 104.59 13.9836C104.59 13.9836 105.356 11.8765 105.931 10.5356L106.505 13.7921C106.505 13.7921 108.421 22.4121 108.804 24.3277H100.759V24.1361Z" fill="#D2D6D9"/>
<path d="M107.463 1.14934C105.165 1.14934 103.441 1.3409 102.483 3.63957L85.8174 35.6295H96.1614L98.077 29.8828H110.337L111.486 35.6295H120.681L112.635 1.14934H107.463ZM100.759 24.1361C101.525 22.2206 104.59 13.9836 104.59 13.9836C104.59 13.9836 105.356 11.8765 105.931 10.5356L106.505 13.7921C106.505 13.7921 108.421 22.4121 108.804 24.3277H100.759V24.1361Z" fill="#D2D6D9"/>
<path d="M26.6264 25.2855L25.6686 20.305C23.9446 14.5583 18.3894 8.23693 12.2596 5.17203L20.8797 35.8211H31.2237L46.7398 1.34089H36.3958L26.6264 25.2855Z" fill="#D2D6D9"/>
<path d="M26.6264 25.2855L25.6686 20.305C23.9446 14.5583 18.3894 8.23693 12.2596 5.17203L20.8797 35.8211H31.2237L46.7398 1.34089H38.3113L26.6264 25.2855Z" fill="#D2D6D9"/>
<path d="M0 1.14934L1.72401 1.53245C13.9836 4.4058 22.4121 11.6849 25.6686 20.305L22.2206 4.02269C21.6459 1.72401 19.9219 1.14934 17.8148 1.14934H0Z" fill="#D2D6D9"/>
<path d="M0 1.14934C12.2596 4.02269 22.4121 11.4934 25.6686 20.1134L22.4121 6.51292C21.8375 4.21424 19.9219 2.87335 17.8148 2.87335L0 1.14934Z" fill="#D2D6D9"/>
<path d="M0 1.14934C12.2596 4.02269 22.4121 11.4934 25.6686 20.1134L23.3699 12.6427C22.7952 10.3441 22.029 8.04537 19.3472 7.08759L0 1.14934Z" fill="#D2D6D9"/>
<path d="M36.2042 24.1361L29.6913 17.6232L26.6264 24.9024L25.8601 20.1134C24.1361 14.3667 18.581 8.04537 12.4512 4.98047L21.0712 35.6295H31.4153L36.2042 24.1361Z" fill="#D2D6D9"/>
<path d="M54.019 35.6295L45.782 27.201L44.2496 35.6295H54.019Z" fill="#D2D6D9"/>
<path d="M76.048 23.753C76.8142 24.5192 77.1973 25.0939 77.0057 25.8601C77.0057 28.1588 73.9408 29.3082 71.259 29.3082C67.4279 29.3082 65.3208 28.7335 62.0643 27.3926L60.7234 26.8179L59.3825 34.6717C61.6812 35.6295 65.8955 36.5873 70.3013 36.5873C76.4311 36.5873 81.4115 34.8633 84.2849 31.7984L76.048 23.753Z" fill="#D2D6D9"/>
<path d="M87.1582 35.6295H96.1614L98.077 29.8828H110.337L111.486 35.6295H120.681L117.424 21.6459L105.931 10.5356L106.505 13.6005C106.505 13.6005 108.421 22.2206 108.804 24.1361H100.759C101.525 22.2206 104.59 13.9836 104.59 13.9836C104.59 13.9836 105.356 11.8765 105.931 10.5356" fill="#D2D6D9"/>
</svg>
